<svg id="Layer_1" data-name="Layer 1" xmlns="http://www.w3.org/2000/svg" viewBox="0 0 250 30"><title>Artboard 1ldpi</title><path d="M14.25,18.4,13,23.65l-1.58-.43L15.47,7.33h1.92l4.06,15.89-1.58.43L18.61,18.4Zm2.21-8.93h0L14.63,17h3.6Z"/><path d="M27.68,7.33h1.61V21.9h6.58v1.44H27.68Z"/><path d="M49.6,23.34H41.8V21.9H48V15.49H42.88V14.05H48V8.77H41.8V7.33h7.8Z"/><path d="M56.1,23.65,54.66,23l4.18-8.35L55.4,7.76,56.89,7l2.74,6,2.74-6,1.49.74-3.43,6.86L64.6,23l-1.44.67-3.5-7.32Z"/><path d="M71.84,18.4,70.6,23.65,69,23.22,73.07,7.33H75L79,23.22l-1.58.43L76.21,18.4Zm2.21-8.93h0L72.23,17h3.6Z"/><path d="M100.64,18.4,99.4,23.65l-1.58-.43,4.06-15.89h1.92l4.06,15.89-1.58.43L105,18.4Zm2.21-8.93h0L101,17h3.6Z"/><path d="M121.4,23.34H119.8V13.52l.07-3.62,0,0-4.75,13.49h-2v-16h1.61v9.84l-.07,3.58,0,0,4.75-13.46h2Z"/><path d="M135.8,23.34H134.2V13.52l.07-3.62,0,0-4.75,13.49h-2v-16h1.61v9.84L129,20.75l0,0,4.75-13.46h2Z"/><path d="M160.19,23.34c-2.21,0-4-1.46-4-4.8a4,4,0,0,1,2.45-4.08,3.33,3.33,0,0,1-1.7-3.1,3.73,3.73,0,0,1,3.55-4h4.9V8.77h-1.3V21.9h1.3v1.44Zm2.26-9.43V8.77h-.94c-1.94,0-2.93.62-2.93,2.59,0,1.68.77,2.54,2.42,2.54Zm0,8V15.35h-1.75c-1.68,0-2.86.79-2.86,3.17s1,3.38,2.42,3.38Z"/><path d="M179.27,15.33c0,2,.07,8.23-4.44,8.23s-4.44-6.17-4.44-8.23c0-2.64.17-8.21,4.44-8.21C179.34,7.12,179.27,13.21,179.27,15.33Zm-7.2,0c0,4.32.5,6.72,2.76,6.72,2.79,0,2.76-3.94,2.76-6.72,0-3,.07-6.7-2.76-6.7S172.07,13,172.07,15.33Z"/><path d="M193.4,23.34h-1.61V13.52l.07-3.62,0,0-4.75,13.49h-2v-16h1.61v9.84l-.07,3.58,0,0,4.75-13.46h2Z"/><path d="M208.07,15.33c0,2,.07,8.23-4.44,8.23s-4.44-6.17-4.44-8.23c0-2.64.17-8.21,4.44-8.21C208.14,7.12,208.07,13.21,208.07,15.33Zm-7.2,0c0,4.32.5,6.72,2.76,6.72,2.79,0,2.76-3.94,2.76-6.72,0-3,.07-6.7-2.76-6.7S200.87,13,200.87,15.33Z"/><path d="M220.33,7.33h2l.48,16h-1.7L220.81,10h0L218,18l-2.74-8h0l-.31,13.35h-1.68l.48-16h2l2.3,6.79Z"/><path d="M236.86,15.33c0,2,.07,8.23-4.44,8.23S228,17.39,228,15.33c0-2.64.17-8.21,4.44-8.21C236.94,7.12,236.86,13.21,236.86,15.33Zm-7.2,0c0,4.32.5,6.72,2.76,6.72,2.79,0,2.76-3.94,2.76-6.72,0-3,.07-6.7-2.76-6.7S229.66,13,229.66,15.33Z"/></svg>