<svg id="Layer_1" data-name="Layer 1" xmlns="http://www.w3.org/2000/svg" viewBox="0 0 98 30"><title>Artboard 1ldpi</title><path d="M18.41,18l-1.25,5.26-1.58-.43L19.64,6.95h1.92l4.06,15.89L24,23.27,22.78,18Zm2.21-8.93h0L18.8,16.57h3.6Z"/><path d="M34.76,23c-2.21,0-4-1.46-4-4.8a4,4,0,0,1,2.45-4.08,3.33,3.33,0,0,1-1.7-3.1,3.73,3.73,0,0,1,3.55-4h4.9V8.39h-1.3V21.52h1.3V23ZM37,13.52V8.39h-.94c-1.94,0-2.93.62-2.93,2.59,0,1.68.77,2.54,2.42,2.54Zm0,8V15H35.26c-1.68,0-2.86.79-2.86,3.17s1,3.38,2.42,3.38Z"/><path d="M53.84,14.94c0,2,.07,8.23-4.44,8.23S45,17,45,14.94c0-2.64.17-8.21,4.44-8.21C53.91,6.73,53.84,12.83,53.84,14.94Zm-7.2,0c0,4.32.5,6.72,2.76,6.72,2.78,0,2.76-3.94,2.76-6.72,0-3,.07-6.7-2.76-6.7S46.64,12.59,46.64,14.94Z"/><path d="M61.49,6.95V18.59c0,1.58.31,3.07,2.3,3.07s2.33-1.51,2.33-3.07V6.95h1.61V19.07a3.78,3.78,0,0,1-3.94,4.1,3.74,3.74,0,0,1-3.91-4V6.95Z"/><path d="M77.43,8.39H74V6.95h8.45V8.39H79V23H77.43Z"/></svg>