<svg id="Layer_1" data-name="Layer 1" xmlns="http://www.w3.org/2000/svg" viewBox="0 0 63 30"><title>Artboard 1ldpi</title><path d="M13.88,7,12.27,23.32h-.7L8.91,13.64h0L6.2,23.32H5.5L3.89,7,5.5,6.68l.77,12h0l2.33-8.42h.48l2.33,8.42h0l.77-12Z"/><path d="M27.73,15c0,2,.07,8.23-4.44,8.23S18.85,17.05,18.85,15c0-2.64.17-8.21,4.44-8.21C27.8,6.78,27.73,12.88,27.73,15Zm-7.2,0c0,4.32.5,6.72,2.76,6.72C26.07,21.71,26,17.77,26,15c0-3,.07-6.7-2.76-6.7S20.53,12.64,20.53,15Z"/><path d="M42.82,23H41.21V15.88h-1.8l-3.6,7.44-1.44-.7,3.31-6.86c-2-.67-2.76-2.54-2.76-4.51,0-2.88,2-4.25,3.58-4.25h4.32ZM41.21,8.44h-2c-1.63,0-2.64.72-2.64,2.81s.86,3.19,2.26,3.19h2.35Z"/><path d="M55.83,7h1.61V23H55.83V15h-.55l-5.16,8.28-1.34-.82L54,14.27,49.64,7.5l1.3-.82L55.4,13.6h.43Z"/></svg>